<?xml version="1.0" standalone="no"?>
<!DOCTYPE svg PUBLIC "-//W3C//DTD SVG 20010904//EN"
 "http://www.w3.org/TR/2001/REC-SVG-20010904/DTD/svg10.dtd">
<svg version="1.0" xmlns="http://www.w3.org/2000/svg"
 width="900.000000pt" height="600.000000pt" viewBox="0 0 900.000000 600.000000"
 preserveAspectRatio="xMidYMid meet">

<g transform="translate(0.000000,600.000000) scale(0.100000,-0.100000)"
fill="#000000" stroke="none">
<path d="M2003 3888 c-6 -7 -18 -26 -26 -43 -31 -58 -31 -58 -66 -41 -17 9
-31 23 -31 31 0 23 -40 46 -62 34 -42 -23 -9 -92 35 -72 17 8 32 7 55 -3 18
-7 32 -15 32 -18 0 -3 -9 -28 -20 -56 -29 -74 -29 -74 44 -67 61 6 64 5 75
-20 10 -21 9 -29 -4 -43 -19 -21 -19 -41 1 -82 15 -32 15 -35 -18 -90 -18 -31
-41 -70 -50 -87 -13 -24 -24 -31 -46 -31 -35 0 -52 -18 -61 -62 -5 -23 -14
-34 -31 -38 -15 -4 -26 -15 -30 -30 -5 -22 -12 -26 -65 -30 l-59 -5 -9 -40
c-10 -46 -2 -122 14 -141 7 -8 31 -14 59 -14 49 0 60 -9 60 -50 0 -12 10 -21
30 -25 24 -5 30 -12 30 -33 0 -39 22 -75 48 -82 17 -4 30 -22 49 -70 50 -124
113 -207 217 -285 120 -90 253 -136 436 -150 155 -11 392 23 433 64 18 18 18
22 -3 127 -12 60 -27 115 -34 122 -9 10 -30 8 -101 -8 -101 -22 -214 -25 -296
-9 l-54 11 3 138 4 138 -35 38 -35 39 -110 3 -110 4 -6 51 c-12 91 14 219 62
314 31 60 131 148 199 173 120 45 262 48 402 10 54 -16 68 -17 79 -6 8 7 27
64 43 127 29 114 29 114 8 131 -41 34 -163 53 -344 53 -183 -1 -251 -12 -369
-63 l-58 -25 -44 23 c-34 19 -46 22 -56 12 -18 -18 -38 -15 -75 14 -27 21 -33
32 -33 63 0 23 -9 51 -22 71 -27 39 -41 46 -55 28z m55 -81 c-3 -23 -90 -83
-106 -73 -5 3 7 37 27 76 l36 71 23 -27 c13 -14 22 -36 20 -47z m-200 30 c4
-20 -25 -34 -39 -20 -14 14 1 45 20 41 9 -2 17 -11 19 -21z m1132 -117 c29
-15 63 -77 53 -95 -7 -13 -18 -4 -56 45 -46 59 -45 76 3 50z m-887 -65 c-31
-27 -39 -30 -47 -18 -5 10 0 24 19 43 23 24 31 27 47 19 18 -10 17 -13 -19
-44z m868 -76 c24 -40 39 -77 37 -90 -2 -18 -15 -5 -61 65 -43 65 -56 93 -51
108 6 21 7 21 20 3 8 -10 32 -49 55 -86z m-46 -97 c-18 -18 -71 48 -61 75 6
14 13 8 36 -27 16 -24 27 -46 25 -48z m-837 -264 c3 -15 -4 -18 -42 -18 -32 0
-46 4 -46 13 0 22 12 28 50 25 24 -2 36 -9 38 -20z m-228 -78 c0 -47 -2 -50
-25 -50 -22 0 -25 4 -25 40 0 27 6 42 18 49 29 17 32 13 32 -39z m-70 -66 l0
-44 -49 0 c-28 0 -53 4 -56 10 -3 5 -3 25 1 44 6 33 9 35 48 38 22 2 44 2 49
0 4 -2 7 -23 7 -48z m68 -58 c3 -24 0 -27 -20 -24 -26 3 -37 36 -16 49 20 13
33 5 36 -25z m-68 -46 c0 -5 -22 -10 -50 -10 -27 0 -50 5 -50 10 0 6 23 10 50
10 28 0 50 -4 50 -10z m298 -87 c3 -21 -1 -23 -42 -23 -43 0 -46 2 -46 26 0
23 3 25 43 22 35 -2 43 -7 45 -25z m408 -12 c44 -27 57 -74 52 -180 -7 -141
-34 -164 -194 -159 -80 2 -99 6 -99 18 0 12 21 16 108 20 137 6 137 7 137 142
0 118 -12 138 -85 138 -38 0 -45 3 -45 20 0 17 7 20 48 20 29 0 59 -7 78 -19z
m-24 -58 c15 -13 18 -32 18 -103 0 -129 -23 -139 -108 -47 -38 42 -92 133 -92
157 0 6 32 10 82 10 62 0 86 -4 100 -17z m528 -267 c0 -2 9 -48 20 -101 11
-53 20 -104 20 -112 0 -18 -53 -40 -118 -49 -50 -6 -52 -6 -52 18 0 37 -19 48
-82 48 -65 0 -71 6 -83 84 -3 27 -9 54 -11 60 -3 8 32 15 110 24 63 6 124 16
137 21 25 10 59 14 59 7z"/>
<path d="M2747 2484 c-14 -15 -6 -34 14 -34 14 0 19 5 17 17 -3 18 -20 27 -31
17z"/>
<path d="M2752 2393 c2 -10 10 -18 18 -18 8 0 16 8 18 18 2 12 -3 17 -18 17
-15 0 -20 -5 -18 -17z"/>
<path d="M3456 3746 c-103 -11 -132 -17 -143 -32 -19 -26 -18 -174 2 -200 23
-30 22 -444 -1 -480 -14 -20 -15 -37 -9 -87 9 -72 9 -142 0 -249 l-7 -77 -40
-6 c-52 -9 -87 -41 -98 -90 -20 -90 25 -165 101 -165 l39 0 0 -49 c0 -78 7
-81 179 -81 107 0 151 4 159 13 5 7 12 114 15 252 3 132 9 253 13 268 10 42
34 50 126 39 134 -17 151 -41 222 -314 25 -97 53 -194 63 -215 l18 -38 160 -2
c88 -2 166 1 174 6 11 7 2 52 -54 252 -37 134 -79 269 -93 299 -15 32 -48 77
-80 108 -30 29 -53 54 -51 55 2 2 28 18 57 36 109 69 173 175 180 303 13 232
-97 376 -336 439 -101 27 -408 34 -596 15z m-76 -271 c7 -9 10 -18 7 -22 -8
-7 -37 15 -37 28 0 14 16 11 30 -6z m558 -17 c53 -13 87 -52 101 -117 23 -108
-21 -191 -119 -226 -25 -9 -90 -19 -146 -22 -93 -5 -101 -4 -108 13 -12 29
-18 263 -9 314 7 35 14 46 33 52 31 9 190 0 248 -14z m-540 -76 c5 -16 -21
-15 -36 0 -7 7 -12 18 -12 26 0 12 3 12 22 0 12 -8 24 -20 26 -26z m0 -80 c5
-16 -21 -15 -36 0 -7 7 -12 18 -12 26 0 12 3 12 22 0 12 -8 24 -20 26 -26z m0
-80 c5 -16 -21 -15 -36 0 -7 7 -12 18 -12 26 0 12 3 12 22 0 12 -8 24 -20 26
-26z m0 -80 c5 -16 -21 -15 -36 0 -7 7 -12 18 -12 26 0 12 3 12 22 0 12 -8 24
-20 26 -26z m-13 -73 c-11 -17 -35 -9 -35 11 0 18 3 19 20 10 11 -6 18 -15 15
-21z m75 -324 c0 -8 -7 -15 -15 -15 -8 0 -15 7 -15 15 0 8 7 15 15 15 8 0 15
-7 15 -15z m0 -115 c0 -11 -7 -20 -15 -20 -15 0 -21 21 -8 33 12 13 23 7 23
-13z m-228 -79 c-38 -35 -43 -85 -13 -122 18 -22 29 -24 133 -29 148 -7 142
-25 -9 -25 -104 0 -113 2 -137 24 -49 46 -42 156 12 185 41 22 50 2 14 -33z
m68 -66 c0 -62 -1 -65 -24 -65 -34 0 -56 25 -56 65 0 40 22 65 56 65 23 0 24
-3 24 -65z m889 -125 l42 -50 84 0 c83 0 95 -5 95 -41 0 -10 -238 -10 -284 0
-24 5 -32 15 -47 56 -28 79 -26 85 24 85 40 0 47 -4 86 -50z"/>
<path d="M4800 3733 c-8 -3 -32 -22 -52 -41 l-38 -36 0 -197 0 -196 -29 -6
c-19 -4 -30 -14 -34 -29 -6 -22 -7 -22 -24 -5 -10 9 -18 27 -18 38 0 26 -26
45 -49 36 -12 -5 -16 -16 -14 -34 2 -22 9 -29 29 -31 47 -5 74 -48 78 -119 1
-7 12 -13 26 -13 l25 0 0 -205 0 -205 -47 0 c-94 -1 -119 -48 -114 -217 2 -65
42 -106 112 -113 l54 -5 6 -44 c4 -34 14 -52 42 -78 l37 -33 391 0 392 0 43
44 c42 41 44 47 44 100 0 49 2 56 20 56 18 0 20 7 20 55 l0 55 -315 0 c-303 0
-315 1 -325 20 -6 12 -9 74 -8 157 l3 138 274 3 c182 1 279 6 288 13 19 17 19
268 -1 295 -14 18 -27 19 -275 17 -143 -2 -267 0 -276 3 -12 5 -15 28 -15 130
0 112 2 124 19 134 12 6 134 10 325 10 l306 0 0 55 0 55 -35 0 -35 0 0 55 c0
52 -3 58 -45 100 l-44 45 -363 -1 c-200 0 -370 -3 -378 -6z m168 -344 c3 -36
3 -37 -39 -41 -37 -3 -42 -1 -51 22 l-10 25 -15 -22 c-9 -13 -26 -23 -39 -23
-21 0 -24 5 -24 33 0 19 3 37 7 41 4 4 43 5 88 4 l80 -3 3 -36z m-98 -79 c10
-19 11 -19 30 0 11 11 31 20 45 20 21 0 25 -5 25 -29 0 -25 -4 -29 -37 -35
-49 -8 -107 -8 -127 0 -10 4 -16 18 -16 35 0 26 3 29 35 29 24 0 37 -6 45 -20z
m-280 -45 c0 -8 -6 -15 -14 -15 -17 0 -28 14 -19 24 12 12 33 6 33 -9z m220
-80 c0 -8 -4 -15 -10 -15 -5 0 -10 7 -10 15 0 8 5 15 10 15 6 0 10 -7 10 -15z
m57 -7 c-3 -8 -6 -5 -6 6 -1 11 2 17 5 13 3 -3 4 -12 1 -19z m367 -59 c14 -11
26 -29 26 -40 0 -18 -4 -17 -40 12 -22 18 -37 36 -34 40 8 14 19 11 48 -12z
m324 8 c11 -2 15 -34 19 -134 l5 -131 -43 -6 c-24 -4 -91 -7 -149 -9 l-105 -2
-3 134 c-1 74 -1 140 2 146 3 9 42 11 133 8 70 -2 134 -5 141 -6z m-400 -139
l-3 -143 -96 -3 c-130 -4 -129 -5 -129 152 0 67 3 126 7 129 3 4 55 7 115 7
l109 0 -3 -142z m69 40 c18 -18 33 -41 33 -52 0 -17 -6 -14 -40 19 -36 35 -51
65 -33 65 4 0 22 -14 40 -32z m33 -140 c0 -10 -3 -18 -7 -18 -15 0 -73 65 -73
83 0 15 6 13 40 -15 22 -18 40 -41 40 -50z m-54 -45 c-7 -7 -26 7 -26 19 0 6
6 6 15 -2 9 -7 13 -15 11 -17z m-328 -190 c-3 -16 -18 -18 -127 -21 -71 -1
-130 -7 -138 -14 -20 -16 -18 -162 3 -182 8 -9 22 -16 30 -16 18 0 18 -14 -1
-30 -23 -19 -63 3 -81 45 -29 71 -11 198 33 224 10 6 75 11 151 11 122 0 133
-2 130 -17z m-173 -128 l0 -80 -40 0 -40 0 -3 69 c-4 91 -1 98 45 94 l38 -3 0
-80z"/>
<path d="M4974 3085 c-7 -18 3 -35 21 -35 18 0 26 25 12 39 -15 15 -27 14 -33
-4z"/>
<path d="M4977 2923 c-15 -14 -7 -43 12 -43 23 0 34 23 18 39 -13 13 -21 14
-30 4z"/>
<path d="M5762 3723 c-7 -13 10 -101 54 -288 35 -148 86 -367 114 -485 117
-505 177 -750 184 -757 12 -12 363 -10 375 2 10 10 149 647 195 890 16 85 27
121 37 123 12 2 18 -17 27 -84 11 -71 54 -303 162 -873 4 -25 16 -51 26 -58
25 -18 353 -19 378 0 18 13 27 46 111 400 l47 197 30 0 c24 0 32 7 48 43 13
27 20 65 20 104 0 53 -3 63 -20 68 -11 3 -20 11 -20 16 0 9 50 223 131 562 25
102 29 130 19 142 -10 12 -43 15 -170 15 -137 0 -161 -2 -180 -18 -18 -15 -29
-49 -55 -172 -22 -103 -30 -160 -24 -171 13 -25 0 -81 -24 -100 -16 -13 -18
-22 -12 -45 12 -42 6 -76 -16 -100 -12 -13 -29 -68 -48 -158 -16 -76 -34 -143
-39 -148 -11 -11 -9 -20 -77 342 -93 495 -101 533 -125 552 -19 15 -43 18
-171 18 -140 0 -149 -1 -172 -22 -21 -20 -34 -70 -107 -428 -96 -471 -100
-490 -110 -490 -4 0 -10 10 -13 23 -4 12 -52 218 -107 457 -56 239 -106 441
-112 448 -8 9 -56 12 -179 12 -150 0 -169 -2 -177 -17z m1143 -23 c18 -20 17
-20 -165 -20 -182 0 -183 0 -165 20 17 18 31 20 165 20 134 0 148 -2 165 -20z
m-261 -152 l68 -78 -39 0 c-35 0 -43 6 -87 57 -34 41 -46 63 -42 77 3 12 6 28
6 36 0 17 -9 26 94 -92z m126 35 c30 -37 63 -77 73 -90 l18 -23 -38 0 c-32 1
-43 7 -68 39 -16 22 -50 62 -73 90 l-44 51 39 0 c35 0 43 -6 93 -67z m129 20
c36 -42 70 -117 58 -129 -2 -3 -30 26 -62 63 -32 38 -68 78 -79 91 l-19 22 30
0 c25 0 40 -10 72 -47z m-879 -11 c0 -8 -14 -16 -62 -40 -5 -2 -8 1 -8 7 0 6
12 17 28 25 31 18 42 19 42 8z m-10 -92 c-19 -17 -38 -30 -42 -30 -15 0 3 26
30 43 43 26 50 19 12 -13z m535 -10 c18 -19 17 -20 -3 -20 -15 0 -22 6 -22 20
0 11 2 20 3 20 2 0 12 -9 22 -20z m-513 -60 c-31 -29 -52 -38 -52 -22 0 9 61
51 75 51 6 0 -5 -13 -23 -29z m22 -66 c-57 -44 -76 -37 -22 8 18 15 35 22 37
17 1 -6 -5 -17 -15 -25z m6 -74 c-34 -30 -50 -37 -50 -22 0 9 62 52 75 52 5
-1 -6 -14 -25 -30z m516 -65 l76 -35 -7 -47 c-11 -79 -53 -284 -111 -541 -30
-134 -54 -246 -55 -250 0 -4 -16 45 -35 108 -19 63 -43 145 -54 181 l-21 66
51 239 c50 242 68 314 75 314 2 0 38 -16 81 -35z m-466 17 c0 -12 -73 -63 -79
-56 -6 6 58 64 71 64 4 0 8 -4 8 -8z m32 -153 l17 -74 -32 -32 c-17 -18 -33
-31 -35 -28 -3 2 -13 39 -23 82 l-19 77 27 28 c15 16 32 27 37 25 6 -2 18 -37
28 -78z m1412 -115 c15 -38 -7 -124 -31 -124 -13 0 -15 8 -9 46 3 26 6 57 6
70 0 27 25 33 34 8z m-1180 -399 l82 -357 -130 7 c-174 8 -170 7 -185 55 l-12
41 43 38 42 38 -13 94 c-7 52 -21 136 -31 188 -16 81 -17 98 -5 120 17 34 116
143 122 137 3 -3 42 -165 87 -361z m871 -190 c30 -29 32 -55 7 -86 -21 -25
-71 -30 -97 -9 -26 22 -16 91 15 107 36 18 48 16 75 -12z"/>
<path d="M7178 2379 c-25 -14 -24 -65 2 -79 46 -25 91 39 50 72 -25 21 -29 21
-52 7z m42 -39 c0 -11 -6 -20 -14 -20 -18 0 -29 16 -21 30 11 18 35 11 35 -10z"/>
</g>
</svg>
